<?xml version="1.0" encoding="UTF-8"?>
<svg width="480px" height="192px" viewBox="0 0 480 192" version="1.1" xmlns="http://www.w3.org/2000/svg" xmlns:xlink="http://www.w3.org/1999/xlink">
    <!-- Generator: Sketch 63.1 (92452) - https://sketch.com -->
    <title>English_get</title>
    <desc>Created with Sketch.</desc>
    <g id="Page-1" stroke="none" stroke-width="1" fill="none" fill-rule="evenodd">
        <g id="English_get" fill-rule="nonzero">
            <rect id="Rectangle" fill="#000000" x="3" y="3" width="474" height="186"></rect>
            <path d="M6,6 L474,6 L474,186 L6,186 L6,6 Z M0,192 L480,192 L480,0 L0,0 L0,192 Z" id="Shape" fill="#D2D2D2"></path>
            <rect id="Rectangle" fill="#F25022" x="296.6" y="40" width="53.2" height="53.2"></rect>
            <rect id="Rectangle" fill="#7FBA00" x="355.4" y="40" width="53.2" height="53.2"></rect>
            <rect id="Rectangle" fill="#00A4EF" x="296.6" y="98.8" width="53.2" height="53.2"></rect>
            <rect id="Rectangle" fill="#FFB900" x="355.4" y="98.8" width="53.2" height="53.2"></rect>
            <g id="Group" transform="translate(71.000000, 49.000000)" fill="#FFFFFF">
                <path d="M74.7,85.6 C65.7,90.7 55.6,93.3 44.1,93.3 C35.5,93.3 27.8,91.4 21.1,87.6 C14.4,83.8 9.3,78.5 5.7,71.6 C2.1,64.7 0.3,56.9 0.3,48.2 C0.3,39 2.3,30.8 6.2,23.6 C10.1,16.4 15.7,10.8 22.9,6.7 C30.1,2.6 38.3,0.6 47.6,0.6 C52.2,0.6 56.8,1 61.3,1.9 C65.8,2.8 69.6,3.9 72.4,5.2 L72.4,18.7 C65.6,14.2 56.9,11.9 46.5,11.9 C40.2,11.9 34.6,13.4 29.6,16.4 C24.6,19.4 20.7,23.6 17.9,29 C15.1,34.4 13.7,40.5 13.7,47.2 C13.7,58 16.5,66.4 22.1,72.6 C27.7,78.8 35.4,81.9 45.3,81.9 C51.6,81.9 57.1,80.6 61.9,78.1 L61.9,55 L43,55 L43,44 L74.8,44 L74.8,85.6 L74.7,85.6 Z" id="Path"></path>
                <path d="M145.9,63.2 L101.5,63.2 C101.7,69.7 103.6,74.6 107.1,78.1 C110.6,81.6 115.2,83.3 121,83.3 C128.6,83.3 135.3,81.1 141.1,76.7 L141.1,87.6 C138.6,89.4 135.4,90.7 131.5,91.8 C127.6,92.8 123.6,93.4 119.4,93.4 C109.7,93.4 102.2,90.5 96.8,84.7 C91.5,78.9 88.8,70.8 88.8,60.3 C88.8,53.8 90.1,48 92.7,42.8 C95.3,37.6 98.9,33.6 103.6,30.6 C108.2,27.7 113.4,26.2 119.1,26.2 C127.4,26.2 133.9,28.9 138.7,34.3 C143.5,39.7 145.9,47.2 145.9,56.9 L145.9,63.2 Z M133.5,53.4 C133.5,47.9 132.2,43.6 129.6,40.7 C127,37.8 123.4,36.3 118.8,36.3 C114.5,36.3 110.9,37.9 107.7,41 C104.6,44.1 102.5,48.3 101.7,53.5 L133.5,53.5 L133.5,53.4 Z" id="Shape"></path>
                <path d="M192,91.1 C190.9,91.8 189.3,92.3 187.2,92.7 C185.1,93.1 183.3,93.3 181.7,93.3 C169.9,93.3 163.9,86.8 163.9,73.7 L163.9,37.9 L153.1,37.9 L153.1,27.8 L163.9,27.8 L163.9,12.6 L176.2,8.7 L176.2,27.8 L192,27.8 L192,38 L176.2,38 L176.2,71.6 C176.2,75.9 176.9,78.8 178.3,80.5 C179.7,82.2 182.1,83.1 185.6,83.1 C188,83.1 190.1,82.4 192.1,81.1 L192.1,91.1 L192,91.1 Z" id="Path"></path>
            </g>
        </g>
    </g>
</svg>